# xmcd
# 
# Track frame offsets:
#     150
#     32785
#     52900
#     67225
#     93370
#     107397
#     127862
#     140560
#     152950
#     167775
#     180322
#     205182
#     229917
#     249485
#     267647
#     282800
#     297492
#     306162
# 
# Disc length: 4416
# 
# Revision: 5
# Processed by: cddbd v1.5.2PL0 Copyright (c) Steve Scherf et al.
# Submitted via: fre:ac v1.0.31
# 
DISCID=08113e12
DTITLE=Tunnel Trance Force Vol. 8 CD2 - Tunnel Trance Force Vol. 8 CD2
DYEAR=1999
DGENRE=Trance
TTITLE0=Tom Wax - Wormhole (Marino Stephano Remix)
TTITLE1=Freebase - Broken (Fire and Ice Remix)
TTITLE2=Slipstream - Utopia (Original Mix)
TTITLE3=Solid Sleep - Cosmic Orgasm
TTITLE4=Khazad Dum - Come Together (Mystic Club Mix)
TTITLE5=Nomax - Sonar
TTITLE6=Casseopaya - Alibara (RE-Mixx)
TTITLE7=Scott Brown - Ecstasy
TTITLE8=Accuface - Millenium Bug
TTITLE9=Arrakis - The Spice
TTITLE10=Silverliquid - Come on
TTITLE11=Tritone - I know you are out there (DJ Dean Mix)
TTITLE12=Plastic Angel and Lord Helmet - Time Traveller
TTITLE13=Scooter - Bramfeld
TTITLE14=JFS - Praxis
TTITLE15=Code 41 - On a Mission (Hard Trance Mix)
TTITLE16=Nuclear Hyde - Axis
TTITLE17=Space Planet - Starglider (148er Version)
EXTD=
EXTT0=
EXTT1=
EXTT2=
EXTT3=
EXTT4=
EXTT5=
EXTT6=
EXTT7=
EXTT8=
EXTT9=
EXTT10=
EXTT11=
EXTT12=
EXTT13=
EXTT14=
EXTT15=
EXTT16=
EXTT17=
PLAYORDER=
